<svg viewBox="0 0 566 198" xmlns="http://www.w3.org/2000/svg" fill-rule="evenodd" clip-rule="evenodd" stroke-linejoin="round" stroke-miterlimit="1.414"><path d="M530.494 66.891H291.466v106.873h269.28L530.493 66.891z" fill="#fff"/><path d="M419.637 33.079H115.374l7.631 28.252h51.378c41.405-39.134 99.13-23.999 121.494 1.226h238.001l32.339 115.097H291.118a86.115 86.115 0 0 1-5.362 4.269h-.006c-31.492 23.053-73.817 20.45-102.699-.002l11.066-.003c27.482 16.045 60.326 11.811 80.426-.004h.007c2.724-1.607 5.214-3.347 7.424-5.197-1.737-6.27-3.399-12.613-5.137-19.029-11.107 10.307-33.169 21.984-64.373 8.147-27.351-13.982-45.939-54.918-9.823-88.071 13.6-11.388 33.245-15.568 48.507-10.955a643.308 643.308 0 0 1-2.288-9.175l-.637-2.622a643.435 643.435 0 0 0-2.288-9.176c-36.04-4.613-70.041 12.324-84.699 47.855-9.293 22.99-5.742 60.396 27.276 84.61a74.874 74.874 0 0 0 5.605 3.615l-11.067.002c-25.528-18.074-40.554-50.096-28.311-90.678H131.09l23.573 86.846h-80.24L33.85 31.927H8.915L0 0h410.873l8.764 33.079zM108.045 171.743h10.351c-.68-2.377-1.359-4.9-2.04-7.422-3.022 1.728-6.12 3.027-9.52 3.314l1.209 4.108zM54.703 6.341H8.613l5.365 19.244h24.933l40.65 146.158h21.609c-.453-1.513-.906-3.172-1.36-4.755-15.338-4.757-18.134-21.406-8.689-30.919L54.703 6.341zm350.957 0H78.88l35.436 126.198c9.672 5.331 13.752 15.492 7.405 26.448 1.133 4.325 2.342 8.578 3.551 12.756h20.778l-23.498-86.917h34.907c3.172-6.557 6.8-12.252 11.031-17.08h-50.698l-11.032-41.08H411.1l-5.44-20.325zm123.08 62.558H301.544c24.254 30.486 23.649 73.873-3.778 102.412h259.761L528.74 68.899zm-423.49 67.747c-7.178 0-12.996 5.549-12.996 12.324 0 6.845 5.818 12.395 12.996 12.395 7.102 0 12.92-5.55 12.92-12.395 0-6.775-5.818-12.324-12.92-12.324zm108.228 16.464l-.636 3.282c.224-1.106.429-2.194.636-3.282zm82.928-82.914c-21.307 9.585-33.018 21.117-39.289 45.189 1.586.431 3.174.936 4.685 1.371.529-1.659 1.133-3.389 1.662-5.047 14.733 11.17 21.231 26.883 24.328 41.367 1.739-.287 3.099-.647 4.836-.864-4.457-20.683-13.525-35.891-27.653-45.331 3.173-8.505 7.782-14.991 13.75-20.181 19.269 14.629 28.711 34.738 29.922 59.458 1.66 0 3.324.073 4.985.073-1.737-28.037-12.616-48.504-31.128-62.701 5.138-3.749 10.199-6.704 15.64-8.866-.453-.216-.831-.216-1.286-.36.984-1.369 1.966-2.665 2.873-4.036-.529-.144-1.058-.288-1.513-.288-.527 0-1.131.072-1.812.216zM72.004 6.341H61.503l35.36 125.835c2.796-1.153 5.969-1.872 9.747-1.801L72.004 6.341zm115.979 108.611c4.156 6.99 11.712 11.893 23.348 14.342.452-1.586.905-3.099 1.358-4.685-10.048-2.018-17.075-5.981-20.399-12.107-1.435.792-2.871 1.656-4.307 2.45zm49.263-27.891c-1.814-.072-3.4-.144-4.685-.072-1.36 0-2.72 0-4.155-.289-.604-.36-.983-1.225-.983-2.522 0-.216-.302-.504-.604-.288-1.209.936-1.209 2.305-.756 3.099.53.865 1.436 1.441 2.494 1.729.302.071.604.144.907.144.529 0 1.133 0 2.266.072.982 0 1.965 0 2.871-.072 1.111-.071 2.077-.073 2.896-.14l-.154-1.081a8.658 8.658 0 0 1-.097-.58zm17.831-10.378c5.592-11.243 13.676-17.514 22.969-21.262a81.342 81.342 0 0 0-1.964-4.468c-10.502 4.108-19.418 11.243-25.538 23.783l4.533 1.947z" fill="#fcdc04"/><path d="M241.479 76.027a21.7 21.7 0 0 1 1.736.079c1.058.072 3.022.504 4.155.144 3.552-.217 4.534 1.298 4.005 3.676-.151.504-.075 1.081 0 1.657 1.058 2.811 1.737 5.622.906 8.577-1.057 2.45-2.115 4.973-1.209 6.63 1.134 2.523 1.814 5.044 1.059 7.351-.756 3.387-2.645 7.352-1.738 10.38.831 2.017 2.342 8.216 3.4 11.242.604 2.09 1.738 3.604 2.946 5.117.983 1.441 1.663 2.81 2.116 4.181-.605 0-1.133.072-1.738.072 1.133 6.413 1.889 15.565 3.626 17.079-.15.432-.226.939-.378 1.371 0 .432-.83.647-1.133 1.151-2.19 4.902-5.364 7.711-11.559 9.37v-.215c-.674-1.714-1.793-4.067-2.843-6.074 2.104-1.292 4.058-2.653 5.336-4.017-9.067-7.927-9.369-10.451-10.956-18.882 0-.36-.151-.505-.378-.505-.132 0-.264.014-.396.03l-.113.013a3.33 3.33 0 0 1-.397.03c.756 2.739 1.436 5.476 2.191 8.143-5.667 4.108-8.992 7.422-10.2 16.36-.453 1.659-1.587 2.018-2.871 1.73-2.04-.721-3.929-1.081-5.516-1.008-2.946-.362-5.817-1.586-8.688-3.317.452-2.235.831-4.395 1.284-6.63.831.287 1.737.649 2.342.577.831.145 1.133.287 1.511.649.302.215.529.505 1.436.432.453 0 2.267 1.009 2.871.504-1.662-12.252 1.813-16.863 10.653-22.847.303-.144.453-.072.831.145.378.359.68.721 1.058 1.082.755.289.832-.218.378-.65-3.098-1.728-4.382-4.9-4.987-8.576-.076-.144.076-.432-.604-.144-13.071 4.397-15.489 2.667-24.102-4.541l2.207-3.592c.557-.88 1.122-1.758 1.701-2.646 2.91 1.646 4.409 3.366 5.385 5.085.302.432.53.361.831.145 4.005-2.306 8.084-4.396 12.165-6.414-.077-.289-.152-.576-.152-.794-.906.505-1.813 1.01-2.72 1.441-10.263-5.974-16.081-5.262-19.407-18.909.08.021.186.006.291-.045 1.81-.966 3.49-1.806 5.354-2.76l.237-.123c1.284 1.585 2.116 3.965 2.721 6.631-.152.216.151.576.302.648 4.684 1.226 9.293 2.451 13.902 3.531-1.284 2.092-2.191 3.893-2.569 5.046-.301 1.514-.604 2.81-.604 3.314h.831c1.36-7.422 3.173-10.089 10.653-13.404 0-.504-.075-1.081-.075-1.586a7.819 7.819 0 0 1-3.174 0c-.528-.144-1.057-.288-1.888-.288-1.814-.576-1.209-2.234-.303-2.09 1.511-.217 2.569 0 3.4.288.378.217 1.587.289 3.098.289l-.202-1.438c.001-.338-.082-.705-.155-1.081l-.096-.652c-.302-.361-.755-.722-.982-1.081-2.267-.433-4.307-.937-6.498-1.441a1.525 1.525 0 0 1-.832-.433c-.906-.865-1.511-1.802-1.964-2.738-.377-1.01.151-1.587 1.36-1.803 1.587-.216 3.249-.432 4.912-.577.453-.071.755-.216.982-.432 1.921-1.832 4.452-2.452 7.177-2.457h.078zm54.927-5.831c.681-.144 1.285-.216 1.812-.216.455 0 .984.144 1.513.288-.907 1.371-1.889 2.667-2.873 4.036.455.144.833.144 1.286.36-5.441 2.162-10.502 5.117-15.64 8.866 18.512 14.197 29.391 34.664 31.128 62.701-1.661 0-3.325-.073-4.985-.073-1.211-24.72-10.653-44.829-29.922-59.458-5.968 5.19-10.577 11.676-13.75 20.181 14.128 9.44 23.196 24.648 27.653 45.331-1.737.217-3.097.577-4.836.864-3.097-14.484-9.595-30.197-24.328-41.367-.529 1.658-1.133 3.388-1.662 5.047-1.511-.435-3.099-.94-4.685-1.371 6.271-24.072 17.982-35.604 39.289-45.189zm-108.423 44.756c1.436-.794 2.872-1.658 4.307-2.45 3.324 6.126 10.351 10.089 20.399 12.107-.453 1.586-.906 3.099-1.358 4.685-11.636-2.449-19.192-7.352-23.348-14.342zm51.454-33.297c-.529-1.009-1.058-1.946-1.738-2.739-.302-.36-1.133-.36-1.36 0-.378.433-.529 1.297-.679 2.163a.435.435 0 0 0 0 .433c.15.071.226.216.377.288.151.144.302.071.454 0 .302-.288.378-.721.302-1.225l.453-.216c.151.144.227.504.302.864v.36c-.075.217.151.361.453.361.454-.073.907-.216 1.436-.289zm7.103-2.378c.604-.216 1.208-.505 1.812-.793.076-.072.454-.143 1.663-.143v-.361c0-.361-.15-.432-.378-.505-.227 0-.529-.072-.831-.072-.68 0-1.284.072-1.511.361-.378.432-.755.792-1.058 1.152.076.145.227.289.303.361zm8.537-2.594l-4.533-1.947c6.12-12.54 15.036-19.675 25.538-23.783a81.342 81.342 0 0 1 1.964 4.468c-9.293 3.748-17.377 10.019-22.969 21.262z"/><path d="M234.62 45.092c3.735.011 7.514.258 11.315.744a643.435 643.435 0 0 1 2.288 9.176l.637 2.622a643.308 643.308 0 0 0 2.288 9.175c-15.262-4.613-34.907-.433-48.507 10.955-36.116 33.153-17.528 74.089 9.823 88.071 31.204 13.837 53.266 2.16 64.373-8.147 1.738 6.416 3.4 12.759 5.137 19.029-19.643 16.433-61.35 24.36-93.462 1.584-33.018-24.214-36.569-61.62-27.276-84.61 13.055-31.645 41.453-48.541 72.969-48.599h.415zM101.17 171.743H79.561L38.911 25.585H13.978L8.613 6.341h46.09l36.418 129.728c-9.445 9.513-6.649 26.162 8.689 30.919.454 1.583.907 3.241 1.36 4.755zM411.1 26.666H106.76l11.032 41.08h50.698c-4.231 4.829-7.859 10.522-11.031 17.08h-34.907l23.498 86.917h-20.778c-1.209-4.178-2.418-8.43-3.551-12.756 6.347-10.956 2.267-21.117-7.405-26.448L78.88 6.341h326.78l5.44 20.325zM244.802 157.761c.974 2.149 1.876 4.225 2.851 6.3-.736.403-1.416.692-2.02.98.378-.648.755-1.296 1.057-1.946-.755.505-1.511 1.081-2.266 1.658.528-.794.982-1.585 1.435-2.379-.907.144-1.889.362-2.795.576.755-.719 1.51-1.368 2.266-2.09-.831.289-1.586.649-2.342.939.454-.721.982-1.371 1.436-2.018-.756 0-1.587.07-2.267.142a83.563 83.563 0 0 1 2.645-2.162zm213.159-82.717c2.843.004 5.574.022 8.218.053a24.9 24.9 0 0 1 3.325.216c4.004.432 7.027 2.162 8.311 6.415l18.815 68.538c.226 1.227.454 2.378.529 3.459v2.523c-.454 5.189-3.855 7.352-9.371 7.207-6.042.072-12.089.072-18.284.072-.529-.072-1.133-.072-1.662-.072-4.835.434-9.671-3.169-12.165-11.17-6.647-21.765-14.053-45.549-18.435-67.459v-2.09c.226-4.9 3.325-7.495 9.144-7.639 3.625-.036 7.063-.054 10.349-.054l1.226.001zm-105.266 88.411c-9.596.072-13.145-5.477-14.959-12.611l-20.552-75.747h18.133c7.103 26.018 14.281 51.962 21.382 77.909.303 1.224 1.057 1.801 2.268 1.873h5.968c1.36-.072 1.965-.864 1.36-2.667l-21.232-77.115h10.88c7.102 26.378 14.282 52.756 21.384 79.06 2.039 7.352-1.133 9.298-6.272 9.298h-18.36zm45.561 0h-11.107L362.82 75.097h18.434l27.655 48.504-13.45-48.504h10.125l24.178 88.358h-18.209l-27.502-51.674 14.205 51.674zm119 0h-11.032L481.82 75.097h18.512l27.653 48.504-13.448-48.504h10.123l24.103 88.358h-18.134l-27.577-51.674 14.204 51.674zm-66.414 0h-13.977l-24.482-88.358h13.978l24.481 88.358zM105.25 136.646c7.102 0 12.92 5.549 12.92 12.324 0 6.845-5.818 12.395-12.92 12.395-7.178 0-12.996-5.55-12.996-12.395 0-6.775 5.818-12.324 12.996-12.324zm107.592 19.746l-1.965.145 1.738-1.369-2.796-.721 2.87-1.082-2.265-1.298 2.568-.359-2.19-1.801 2.947.215-1.814-.936 2.191.576-1.284 6.63zm256.662-55.782a1831.738 1831.738 0 0 0-4.609-16.648c-.076-.649-.68-.721-1.285-.721-2.19 0-4.53.072-6.799.072-1.436 0-1.738.649-1.587 1.946 3.628 17.512 9.218 36.179 14.28 54.413.756 2.596 1.437 5.26 2.115 7.855 1.059 3.534 2.721 6.993 5.518 7.137h4.758c1.511-.144 2.117-.794 1.889-2.09-4.835-17.441-9.52-34.595-14.28-51.964zm-263.991 15.783c-.303-.216-.53-.432-.832-.649-.151-.143-1.133-.647-1.662-1.009-.151-.214-.076-.432.227-.504.529-.073 1.058-.073 1.587-.142-.605-.29-1.209-.65-1.814-.94 0-.142 0-.36.076-.504.68 0 1.36-.07 2.04-.07-.53-.434-1.284-.794-1.662-1.226-.303-.505.226-.722.453-.577.755.072 1.511.217 2.191.145l-1.436-1.371c.075-.143.227-.287.302-.359.681.216 1.436.503 2.116.791-.302-.432-.605-.936-.906-1.369.075-.142.15-.142.301-.287 1.436.792 2.418 1.368 2.947 1.8l-.061.096c-.577.886-1.121 1.732-1.659 2.581l1.659-2.581.041-.063-1.7 2.644-.07.11a154.275 154.275 0 0 0-2.07 3.369l-.068.115zm5.818-29.116c.074.216.074.36.074.504-1.964 1.008-3.928 1.946-5.892 2.883-.68-.36-1.437-.793-1.965-1.153-.378-.361 0-.793.454-.577a46.09 46.09 0 0 0 1.662.432h.302c-.377-.648-1.285-1.369-2.04-2.016l.226-.433c.604.288 1.285.576 1.965.864l-1.134-1.729c.076-.073.227-.144.378-.289.832.865 1.662 1.73 2.569 2.306-.226-1.152-.605-2.233-1.057-3.315l.452-.216c.605 1.081 1.285 2.09 2.116 3.027a14.088 14.088 0 0 0-1.586-2.594c-.302-.649.529-.721.755-.577 1.058.721 1.814 1.73 2.721 2.883zm25.915-.216c.025.194.059.388.097.58l.154 1.081c-.819.067-1.785.069-2.896.14-.906.072-1.889.072-2.871.072-1.133-.072-1.737-.072-2.266-.072-.303 0-.605-.073-.907-.144-1.058-.288-1.964-.864-2.494-1.729-.453-.794-.453-2.163.756-3.1.302-.215.604.073.604.289 0 1.297.379 2.162.983 2.522 1.435.289 2.795.289 4.155.289 1.285-.072 2.871 0 4.685.072z" fill="#ec1c24"/></svg>